<?xml version="1.0" ?><svg viewBox="0 0 512 512" xmlns="http://www.w3.org/2000/svg"><defs><style>.cls-1{fill:#bebebe;}.cls-2{fill:#a2a2a2;}.cls-3{fill:#8c8c8c;}.cls-4{fill:#338dbf;}.cls-5{fill:#00b378;}.cls-6{fill:#dfdfdf;}.cls-7{fill:#ededed;}.cls-8{fill:#ec9090;}.cls-9{fill:#ea8383;}.cls-10{fill:#fda5a3;}.cls-11{fill:#f0a5a5;}.cls-12{fill:#777;}.cls-13{fill:#096;}.cls-14{fill:#010202;opacity:0.15;}.cls-15{fill:#2c78a3;}.cls-16{fill:#cacaca;}</style></defs><title/><g data-name="/ FILLED_OUTLINE" id="_FILLED_OUTLINE"><path class="cls-1" d="M391.76465,128a96,96,0,0,0-67.88233,28.11768L296,184l48,48,27.88232-27.88232A96,96,0,0,0,400,136.23547V128Z"/><path class="cls-2" d="M325.56641,213.56653,344,232l27.88232-27.88232A96,96,0,0,0,400,136.23547V128h-.33447A96.05853,96.05853,0,0,1,325.56641,213.56653Z"/><path class="cls-1" d="M120.23535,128a96,96,0,0,1,67.88233,28.11768L216,184l-48,48-27.88232-27.88232A96,96,0,0,1,112,136.23547V128Z"/><polygon class="cls-3" points="320 328 192 328 120 496 392 496 320 328"/><polygon class="cls-4" points="130.286 472 120 496 392 496 381.714 472 130.286 472"/><circle class="cls-5" cx="256" cy="472" r="16"/><circle class="cls-6" cx="256" cy="288" r="128"/><rect class="cls-7" height="93.29523" transform="translate(-133.0078 501.0829) rotate(-59.03624)" width="16.00011" x="367.99994" y="321.35238"/><rect class="cls-7" height="98.95454" transform="translate(-17.40014 625.71432) rotate(-75.96376)" width="16.00025" x="383.99988" y="274.52273"/><rect class="cls-7" height="15.99971" transform="translate(-76.12349 184.58905) rotate(-24.4454)" width="96.66437" x="339.66782" y="260.00015"/><path class="cls-3" d="M304,336v4a20,20,0,0,1-40,0V304H248v36a20,20,0,0,1-40,0v-4H192v4a35.981,35.981,0,0,0,64,22.59253A35.981,35.981,0,0,0,320,340v-4Z"/><path class="cls-3" d="M232,264H216V248a8,8,0,0,0-16,0v16H184V248a24,24,0,0,1,48,0Z"/><rect class="cls-7" height="16.00011" transform="translate(-169.96119 122.42363) rotate(-30.96556)" width="93.29523" x="89.35238" y="359.99994"/><rect class="cls-7" height="16.00025" transform="translate(-75.00286 38.78099) rotate(-14.03709)" width="98.95454" x="70.52273" y="315.99988"/><rect class="cls-7" height="96.66437" transform="translate(-171.28978 269.98625) rotate(-65.55605)" width="15.99971" x="116.00015" y="219.66782"/><path class="cls-3" d="M328,264H312V248a8,8,0,0,0-16,0v16H280V248a24,24,0,0,1,48,0Z"/><path class="cls-8" d="M248,107.405V80H213.186L162.93848,40.446a15.71033,15.71033,0,1,0-17.68457,25.90625l13.82324,8.54908-28.406-16.23218A16.29067,16.29067,0,0,0,106.78442,68.8623v.00013a16.29067,16.29067,0,0,0,6.76783,17.50573L128,96,96.76025,80.38013a18.7386,18.7386,0,0,0-25.14038,8.38v.00012a18.73859,18.73859,0,0,0,6.82886,24.27027L128,144h96Z"/><path class="cls-9" d="M212.5713,120H166.31237a34.7402,34.7402,0,0,1-15.53628-3.66762L115.57768,98.73317a8,8,0,0,1-3.57751-10.7335l.00005-.00012a8,8,0,0,1,10.73292-3.57731l35.19977,17.59988A18.73477,18.73477,0,0,0,166.31135,104h46.26a8,8,0,0,1,8,8v0A8,8,0,0,1,212.5713,120Z"/><path class="cls-9" d="M219.42894,88h-51.4294a7.99972,7.99972,0,0,1-3.96914-1.05411l-17.05384-9.74551a7.99976,7.99976,0,0,1-2.97672-10.91445h0a7.99977,7.99977,0,0,1,10.91486-2.977l13.36478,7.637a7.9998,7.9998,0,0,0,3.969,1.054h47.18046a7.99977,7.99977,0,0,1,7.99977,7.99977v.00046A7.99977,7.99977,0,0,1,219.42894,88Z"/><path class="cls-10" d="M416,16,367.55127,45.06921a80.00047,80.00047,0,0,1-66.458,7.29529L212.4082,22.80273a22.81477,22.81477,0,0,0-28.3977,13.1709h0a22.815,22.815,0,0,0,11.53491,29.14759l51.26221,23.92224-47.13941,41.24682a47.99985,47.99985,0,0,1-36.38427,11.63806L45.91479,130.19141A19.93157,19.93157,0,0,0,24,150.02393v.00012a19.93133,19.93133,0,0,0,17.88062,19.82556l193.2915,19.99585a80.00324,80.00324,0,0,0,40.04077-6.1709L496,88Z"/><path class="cls-8" d="M319.68742,104h-5.93937a72.48865,72.48865,0,0,1-30.44825-6.75488l-19.83933-9.25836a7.9999,7.9999,0,0,0-9.03982,1.59259h0a7.99988,7.99988,0,0,0,2.27372,12.90613l19.83982,9.25865A88.59045,88.59045,0,0,0,313.74805,120H320a8.00052,8.00052,0,0,0,7.98509-8.49461A8.208,8.208,0,0,0,319.68742,104Z"/><circle class="cls-11" cx="256" cy="296" r="16"/><path class="cls-1" d="M203.37354,404.71484a128.0618,128.0618,0,0,0,169.3413-169.3413A256.57569,256.57569,0,0,1,203.37354,404.71484Z"/><path class="cls-12" d="M224.00024,496H392l-30.57812-71.34839A167.79134,167.79134,0,0,1,224.00024,496Z"/><path class="cls-13" d="M249.44043,486.58276A15.98064,15.98064,0,0,0,270.583,465.44031,32.07164,32.07164,0,0,1,249.44043,486.58276Z"/><path class="cls-14" d="M249.44043,310.58276A15.98064,15.98064,0,0,0,270.583,289.44031,32.07164,32.07164,0,0,1,249.44043,310.58276Z"/><path class="cls-15" d="M381.71436,472h-71.1587a167.17983,167.17983,0,0,1-86.55542,24H392Z"/><path class="cls-12" d="M302.65674,347.14819a20.052,20.052,0,0,1-14.22266,12.33948q-8.95605,7.212-18.55469,13.61926A35.98415,35.98415,0,0,0,320,340v-4h-6.11328Q308.44482,341.74566,302.65674,347.14819Z"/><path class="cls-16" d="M366.35107,352.88086l-26.23486-15.74072-8.23242,13.71972,25.48584,15.29151A128.28708,128.28708,0,0,0,366.35107,352.88086Z"/><path class="cls-16" d="M381.52637,313.13525l-35.58594-8.89648-3.88086,15.52246,35.36182,8.84033A127.12113,127.12113,0,0,0,381.52637,313.13525Z"/><path class="cls-16" d="M346.4834,293.46289l.82715,1.81982,36.35058-16.52294a127.96,127.96,0,0,0-2.27051-16.543l-23.60644,10.7301Q352.59424,283.487,346.4834,293.46289Z"/><path d="M304,340a20,20,0,0,1-40,0V318.62378a24,24,0,1,0-16,0V340a20,20,0,0,1-40,0v-4H192v4a35.981,35.981,0,0,0,64,22.59253A35.981,35.981,0,0,0,320,340v-4H304Zm-48-36a8,8,0,1,1,8-8A8.00917,8.00917,0,0,1,256,304Z"/><path d="M392,288c0-4.28027-.22168-8.53162-.61377-12.75171l43.92432-19.96558-6.6211-14.56542-39.84179,18.10986a134.89459,134.89459,0,0,0-17.48926-42.87146l6.01465-6.01477A103.88256,103.88256,0,0,0,408,136v-1.14807l91.18066-39.5116-6.36132-14.68066L272.03223,176.334a72.16105,72.16105,0,0,1-36.03711,5.55372L42.7041,161.89209a11.93139,11.93139,0,0,1,2.415-23.74023l117.36914,11.73681a56.19967,56.19967,0,0,0,42.44727-13.57812l43.2146-37.81238,28.384,13.246A88.59045,88.59045,0,0,0,313.74805,120H328V104h-14.252a72.48865,72.48865,0,0,1-30.44825-6.75488L198.92871,57.87158a14.81471,14.81471,0,0,1,10.94922-27.47949l88.68555,29.56152A87.89566,87.89566,0,0,0,371.668,51.9292l48.44824-29.06934L411.88379,9.14014,363.43555,38.20947A71.92159,71.92159,0,0,1,303.624,44.7749L214.9375,15.21338a30.79413,30.79413,0,0,0-40.15186,24.27283l-6.95849-5.37293a23.712,23.712,0,0,0-37.97827,15.517A24.25534,24.25534,0,0,0,98.313,72.3208a26.73588,26.73588,0,0,0-24.105,47.49365l9.84033,6.15015L46.71094,122.231a27.93152,27.93152,0,0,0-5.65332,55.57617l75.49072,7.80933A104.15823,104.15823,0,0,0,134.627,209.94092l6.05762,6.05762a136.65263,136.65263,0,0,0-17.491,42.84741l-39.883-18.12866-6.6211,14.56542,43.92139,19.96436Q120.01026,281.5774,120,288a136.09566,136.09566,0,0,0,2.71069,27.07593L70.05957,328.23877l3.88086,15.52246,52.88135-13.22034a135.39467,135.39467,0,0,0,12.00976,26.43055l-46.94775,28.1687,8.23242,13.71972,47.66162-28.59692a137.09611,137.09611,0,0,0,11.65967,13.40674l-46.791,109.17895,14.707,6.30274L135.56128,480h97.81494a23.995,23.995,0,0,0,45.2478,0H376.439l8.20752,19.15137,14.707-6.30274-46.791-109.17895a137.06388,137.06388,0,0,0,11.65967-13.40674l47.66162,28.59692,8.23242-13.71972-46.94775-28.1687a135.4088,135.4088,0,0,0,12.00976-26.43055l52.88135,13.22034,3.88086-15.52246-52.65137-13.16284A136.09569,136.09569,0,0,0,392,288ZM147.88379,47.4292a7.73,7.73,0,0,1,10.165-.65137l25.98486,20.06446A30.69155,30.69155,0,0,0,191.417,72H170.21582l-20.8457-12.50732a7.71159,7.71159,0,0,1-1.48633-12.06348ZM114.54492,70.80273a8.29159,8.29159,0,0,1,12.15723-5.1875L165.876,88H225.6543l6.65039,3.10352L217.56543,104h-53.1416a10.794,10.794,0,0,1-4.80176-1.1333L132.02148,89.06641l-14.03222-9.3545A8.30932,8.30932,0,0,1,114.54492,70.80273ZM82.68848,106.24658A10.73855,10.73855,0,0,1,93.18164,87.53516l59.28418,29.64209A26.87424,26.87424,0,0,0,164.42383,120h34.85522l-4.87964,4.26953a40.10744,40.10744,0,0,1-30.31933,9.69824l-44.092-4.40918Zm309.09716,35.63159a87.8981,87.8981,0,0,1-25.72705,56.74927l-4.105,4.105a135.76322,135.76322,0,0,0-36.90429-31.93518ZM136.67456,187.69849l24.781,2.56359a136.08888,136.08888,0,0,0-11.38135,12.49817l-4.13281-4.13281A88.57524,88.57524,0,0,1,136.67456,187.69849ZM256,480a8,8,0,1,1,8-8A8.00917,8.00917,0,0,1,256,480Zm113.58154-16H278.624a23.995,23.995,0,0,0-45.2478,0H142.41846l29.6101-69.09045a135.74,135.74,0,0,0,167.94312,0Zm4.16162-152.81055-27.80273-6.95068-3.88086,15.52246,27.55322,6.88831a119.44567,119.44567,0,0,1-10.16064,22.09216l-19.33594-11.60156-8.23242,13.71972,18.53564,11.12134a119.8723,119.8723,0,0,1-188.83886,0l18.53564-11.12134-8.23242-13.71972L152.54785,348.7417a119.462,119.462,0,0,1-10.16064-22.09216l27.55322-6.88831-3.88086-15.52246-27.80249,6.95068A120.113,120.113,0,0,1,136,288c0-1.90283.05884-3.79883.14941-5.69019l28.54,12.9729,6.6211-14.56542-33.18238-15.083a120.50884,120.50884,0,0,1,45.17505-73.11206l51.04541,5.28051a88.10562,88.10562,0,0,0,44.04492-6.78808l27.78223-12.03906a120.08448,120.08448,0,0,1,67.74072,86.63855l-33.227,15.10315,6.6211,14.56542,28.541-12.97326c.08838,1.89123.14844,3.787.14844,5.69055A120.113,120.113,0,0,1,373.74316,311.18945Z"/><path d="M200,248a8,8,0,0,1,16,0v16h16V248a24,24,0,0,0-48,0v16h16Z"/><path d="M304,224a24.02718,24.02718,0,0,0-24,24v16h16V248a8,8,0,0,1,16,0v16h16V248A24.02718,24.02718,0,0,0,304,224Z"/></g></svg>