<?xml version="1.0" ?><!DOCTYPE svg  PUBLIC '-//W3C//DTD SVG 1.1//EN'  'http://www.w3.org/Graphics/SVG/1.1/DTD/svg11.dtd'><svg enable-background="new 0 0 256 256" height="256px" id="Layer_1" version="1.1" viewBox="0 0 256 256" width="256px" xml:space="preserve" xmlns="http://www.w3.org/2000/svg" xmlns:xlink="http://www.w3.org/1999/xlink"><g><g><path d="M194,244.5h-46.25c-2.209,0-4-1.791-4-4v-52c0-3.309-2.692-6-6-6h-19.5c-3.308,0-6,2.691-6,6v52    c0,2.209-1.791,4-4,4H62c-7.72,0-14-6.28-14-14v-132c0-2.209,1.791-4,4-4s4,1.791,4,4v132c0,3.309,2.692,6,6,6h42.25v-48    c0-7.72,6.28-14,14-14h19.5c7.72,0,14,6.28,14,14v48H194c3.308,0,6-2.691,6-6v-132c0-2.209,1.791-4,4-4s4,1.791,4,4v132    C208,238.22,201.72,244.5,194,244.5z" fill="#F0C061"/></g><g><path d="M248.339,112.5c-0.854,0-1.715-0.272-2.443-0.835L128,20.555l-117.896,91.11    c-1.749,1.351-4.26,1.028-5.611-0.719c-1.351-1.748-1.029-4.26,0.719-5.611l120.342-93c1.44-1.113,3.451-1.113,4.892,0l120.342,93    c1.748,1.351,2.069,3.863,0.719,5.611C250.719,111.966,249.535,112.5,248.339,112.5z" fill="#F0C061"/></g></g></svg>